<svg xmlns="http://www.w3.org/2000/svg" xmlns:xlink="http://www.w3.org/1999/xlink" width="1080" zoomAndPan="magnify" viewBox="0 0 810 809.999993" height="1080" preserveAspectRatio="xMidYMid meet" version="1.0"><defs><g/></defs><g fill="#ff914d" fill-opacity="0.302"><g transform="translate(172.893859, 731.921641)"><g><path d="M 69.578125 -554.671875 L -0.875 -541.640625 L -1.234375 -637.1875 L 236.5 -681.140625 L 236.859375 -585.59375 L 166.421875 -572.578125 L 171.703125 -31.734375 L 74.84375 -13.828125 Z M 69.578125 -554.671875 "/></g></g></g><g fill="#ff914d" fill-opacity="0.502"><g transform="translate(282.565813, 754.286464)"><g><path d="M 69.578125 -554.671875 L -0.875 -541.640625 L -1.234375 -637.1875 L 236.5 -681.140625 L 236.859375 -585.59375 L 166.421875 -572.578125 L 171.703125 -31.734375 L 74.84375 -13.828125 Z M 69.578125 -554.671875 "/></g></g></g><g fill="#000000" fill-opacity="1"><g transform="translate(392.23772, 776.651317)"><g><path d="M 69.578125 -554.671875 L -0.875 -541.640625 L -1.234375 -637.1875 L 236.5 -681.140625 L 236.859375 -585.59375 L 166.421875 -572.578125 L 171.703125 -31.734375 L 74.84375 -13.828125 Z M 69.578125 -554.671875 "/></g></g></g></svg>